<?xml version="1.0" encoding="utf-8"?>
<!-- Generator: Adobe Illustrator 24.0.0, SVG Export Plug-In . SVG Version: 6.00 Build 0)  -->
<svg version="1.1" id="Layer_1" xmlns="http://www.w3.org/2000/svg" xmlns:xlink="http://www.w3.org/1999/xlink" x="0px" y="0px"
	 viewBox="0 0 200 200" style="enable-background:new 0 0 200 200;" xml:space="preserve">
<style type="text/css">
	.st0{fill:#088178;}
	.st1{fill:#FFFFFF;}
</style>
<g>
	<circle class="st0" cx="100" cy="98" r="82"/>
</g>
<g>
	<path class="st1" d="M95.7,78c-0.2,5.1,0.7,9.9,4.1,13.1c11.6-4.3,26.8-8.1,31.3-0.6c6.2,10.1-15.9,11.6-22.1,11.8
		c-3.4,0.2-6.6-0.2-9.6-0.6c-2.6,1.1-5.2,2.6-7.9,4.1c-14.2,9-23.6,21.9-22.9,37.7c1.5,34.1,59.2,11.4,62.8-11.8
		c0.7-5.4,18.4-4.7,17.6,0c-4.9,30.9-86.2,57.9-97.2,18.4c-6.6-23.2,13.1-43.3,35-53.6c-5.8-4.3-9-10.9-8.8-18.7
		c-14.8-2.1-29-9-36-20.6c-3-4.9,14.2-6.4,17-2.1c4.5,7.7,11.8,12,20.2,13.9c5.2-19.1,27.5-32.2,49.5-33.5c12-0.7,29,2.8,24.5,16.3
		C148.1,67.7,116.8,76.3,95.7,78z M134.3,42.8c-5.6-3.6-22.5,7.1-25.5,9.6C103,57,98.7,63,96.8,69.8c1.3-0.2,2.4-0.2,3.7-0.4
		C106,68.4,150,53.1,134.3,42.8z"/>
</g>
</svg>
