<?xml version="1.0" encoding="utf-8"?>
<!-- Generator: Adobe Illustrator 24.0.0, SVG Export Plug-In . SVG Version: 6.00 Build 0)  -->
<svg version="1.1" id="Layer_1" xmlns="http://www.w3.org/2000/svg" xmlns:xlink="http://www.w3.org/1999/xlink" x="0px" y="0px"
	 viewBox="0 0 373.1 103" style="enable-background:new 0 0 373.1 103;" xml:space="preserve">
<style type="text/css">
	.st0{fill:#098178;}
	.st1{fill:#1A1A1A;}
</style>
<path class="st0" d="M362.3,64.8c0.1-0.1,0.1-0.4,0-0.5c0-0.1-0.1-0.1-0.1-0.2c0,0,0.1,0,0.1-0.1c0.5-0.3,0.1-1.2-0.4-0.9
	c-0.1,0.1-0.2,0.1-0.3,0.1c-4.8-5.4-20-2.3-25.7-1.6c-14.9,1.7-29.3,7-40.9,16.4c-2.7,1-5.4,2.2-7.9,3.5c-0.2,0.1-0.4,0.1-0.6,0.2
	c7.8-6.8,15.2-14.1,22.6-21.2c1.6,0.6,3.6,0.6,5.2,0.5c1.9-0.2,3.9-0.6,5.7-1.4c0.2,0.3,0.4,0.6,0.7,0.8c1.9,1.6,5.6-0.4,6.6-2.3
	c0.9-1.8-0.7-3.4-2.4-3.7c-0.9-0.1-1.7,0-2.5,0.3c-0.1-0.1-0.3-0.1-0.5,0c-0.5,0.4-0.9,0.8-1.3,1.3c-0.1,0.1-0.2,0.3-0.3,0.4
	c-0.4,0.8-0.7,1.6-0.5,2.4c-3.1,1.4-6.4,1.2-9.7,0.7c1-1,2-1.9,3-2.9c3.1-2.9,5.8-6,8.4-9.3c-0.1,0.3,0.1,0.9,0.6,0.7
	c0.6-0.3,1.2-0.4,1.8-0.6c2.1-0.1,4.3-0.5,6.5-1c-0.1,2.6,1.4,5.5,4.1,6c0.3,0.1,0.3-0.3,0.2-0.4c-0.6-0.9-1.5-1.4-2.2-2.2
	c-0.9-1-1.4-2.2-1.5-3.5c1.3-0.3,2.6-0.6,3.9-1c0.9,1.7,4.3,2.6,6.1,2.2c0,0.1,0,0.2,0.1,0.2c0,0.5,0.1,1,0.3,1.4
	c0.1,0.5,0.3,1.1,0.7,1.6c1.3,1.7,3.9,2.1,5.9,1.7c2-0.4,4.1-2.4,3.9-4.6c-0.2-2.1-2.3-2.9-4-3.3c-1.9-0.4-4.4-0.1-5.9,1.3
	c-0.3,0.3-0.5,0.6-0.6,0.9c-0.9-0.5-2.1-0.5-3.2-0.8c-0.9-0.2-1.5-0.6-2.2-1.1c1.4-0.5,2.7-1,4.1-1.5c0,0.1,0,0.1,0,0.2
	c0.1,0.2,0.5,0.3,0.6,0c0-0.2,0.1-0.4,0.1-0.6c2.5-1.1,4.9-2.3,7.1-3.7c1.4,2.9,6.4,3.9,9.7,1.5c1.3-0.3,2.5-0.8,3.5-1.4
	c1.2-0.7,2.6-1.7,3.7-2.9c0.2-0.1,0.4-0.2,0.5-0.3c2.8-1.4,9-5.6,4.9-9c-0.7-0.6-1.8-0.9-3-0.9c-1.4-1-3.4-1.2-5.4-0.9
	c-5.3,0.2-10.2,4.8-13.2,9.1c-0.8,1.2-1.2,2.3-1.2,3.2l-0.1,0.1c-0.1,0.2-0.2,0.4-0.1,0.6c-2,1.2-4.1,2.1-6.2,2.9
	c0.1-0.9,0.2-1.8,0.4-2.7c0.3-1.1,0.7-2.1,1.2-3c0.6,0.1,1.3,0.1,1.8,0c0.8-0.1,1.5-0.5,1.9-1.2c0.7-1.2,0.1-2.8-1.1-3.4
	c-0.3-0.2-0.6-0.2-1-0.2c0.2-0.3-0.2-0.8-0.5-0.6c-0.4,0.3-1,0.7-1.5,1.3l-0.1,0.1l0,0c-0.2,0.2-0.3,0.4-0.4,0.6
	c-0.6,0.9-0.9,1.9-0.3,2.8c0.1,0.1,0.2,0.3,0.4,0.4c-1.2,1.9-2.1,4.2-2.1,6.4c-5.4,1.9-11.2,3.1-16.7,5c0-0.1,0-0.2-0.1-0.3
	c-0.1-0.2-0.4-0.4-0.6-0.5c2-2.5,3.8-5.2,5.6-7.9c0,0,0,0,0.1-0.1c0.7-1,1.4-2,2.1-3.1c0.5-0.8,1-1.6,1.5-2.4
	c4.1-1.8,8.5-4.1,12.1-7c3.3,0.6,7,0,9.9-1.7c0.4-0.3,0.1-1-0.3-0.7c-2.7,1.6-5.7,1.8-8.7,1.7c2-1.7,3.7-3.6,5.1-5.8
	c0.1,0,0.2,0.1,0.3,0.1c0.5,0.2,0.8-0.6,0.4-0.8c-0.1,0-0.1-0.1-0.2-0.1c0.1-0.3,0.3-0.5,0.4-0.8c0.4,0.4,0.9,0.6,1.3,0.6
	c0.7,0.3,1.6,0.4,2.4,0.4c4.3-0.4,7.2-6,8-9.6c0.8-3.5-0.4-7.7-4.5-7.8c-0.3,0-0.6,0-0.9,0c-1.1,0-2,0.5-2.8,1.1
	c-2.6,1.8-4.6,5.2-5.7,7.5c-1.3,2.8-2,6.9,0.7,8.9c-1.8,2.5-4.1,4.4-6.5,6l0,0c-0.2,0-0.3,0.1-0.3,0.2c-3.2,2.1-6.7,3.9-9.9,6.4
	c2-3.6,3.6-7.6,3.6-11.6c0.6,0.1,1.2,0,1.9-0.2c3.4-1.4,3-6.7,2.4-9.5c-0.7-3.2-2.2-7.5-5.4-8.9c-3.4-1.5-5.4,3.7-5.7,6.1
	c-0.6,4.7,1.5,11.6,5.7,14.2h0.1c-0.9,5.6-4.2,10.6-7.3,15.4c-0.4-1.5-1.1-2.9-1.3-4.4c-0.2-1.2-0.1-2.5,0-3.8c0.4,0,0.8,0,1.2-0.1
	c0.2-0.1,0.3-0.2,0.3-0.4c0.2-0.1,0.5-0.3,0.6-0.5c0.6-0.8,0.8-2,0.6-3.1c0-0.8-0.2-1.6-0.5-2.3c-0.3-0.6-0.8-1-1.4-1.2l-0.1-0.1
	l0,0c0.1-0.1,0-0.4-0.2-0.4c-1.8,0.1-3.4,2.7-3.6,4.3c-0.2,1.5,0.6,2.9,1.9,3.5c0.1,0,0.1,0,0.2,0.1s0.3,0.1,0.4,0.2
	c-0.5,3.2-0.6,6.9,1.3,9.2c-0.1,0.2-0.3,0.5-0.4,0.7c-5,7.9-11.5,14.6-18.3,21c-0.3-0.1-0.6-0.1-0.8-0.2c-0.2,0-0.3,0.2-0.2,0.4
	c0.1,0.1,0.3,0.2,0.4,0.3c-0.1,0.1-0.3,0.3-0.4,0.4c-4.7,4.5-9.4,8.8-14.1,13.1c4.2-4.3,7-9.6,9-15.4l0.1-0.1
	c0.2,0.2,0.4,0.2,0.6,0.1c6.8-7.2,8.9-16.7,9.5-26.3c0.3-5.1,0.1-10.3-0.8-15.4c-0.9-5.8-4.9-10.1-6.1-15.7C305.5,0,305,0,304.8,0.3
	c-4.8,9.7-6.2,19.9-6.2,30.7c0,8.3-0.8,18.2,1.9,26.3c-1.7,5-4,9.8-7.2,14.5l0,0c-1.5,1.9-3,3.8-4.6,5.7
	c-8.8,7.7-17.8,15.1-27.4,22.1c-0.4,0.3,0,0.9,0.4,0.7c7.7-4.7,15-10.2,21.9-16.1l0,0c0.2-0.1,0.3-0.2,0.5-0.3
	c1.6-0.5,3.2-1.1,4.8-1.6c0,0.1,0.1,0.2,0.2,0.2c0.8-0.2,1.6-0.4,2.3-0.6c13.6-0.7,27.3,2,40.8-0.4
	C343.6,79.5,354.7,73.5,362.3,64.8z M325.1,56c0.6,0.2,1.1,0.6,1,1.3c-0.4,1.5-3.1,2.7-4.5,2.2c-0.1,0-0.2-0.1-0.3-0.2
	c1.6,0.1,2.9-0.8,3.8-2.2c0.2-0.4,0-0.8-0.4-0.9C324.8,56.2,324.9,56.1,325.1,56z M320.8,57.9c0-0.1,0-0.2,0.1-0.3
	c0.4-0.3,0.7-0.8,1.1-1.1c0.5-0.4,1.3-0.6,2-0.6c0,0,0,0,0.1,0C322.8,56.5,321.8,57.2,320.8,57.9L320.8,57.9z M348.8,49
	c0.2-0.3,0.3-0.6,0.4-1c0.1,0,0.1,0,0.1,0c0.4,0.1,0.6-0.3,0.5-0.6c1,1.2-0.7,2.9-1.7,3.3c-0.8,0.4-1.7,0.4-2.6,0.2
	C346.9,50.8,348.1,50.1,348.8,49z M344.9,49c1,0.1,2-0.1,2.9-0.5c-0.5,0.6-1.3,0.9-2,1.1c-0.6,0.1-1.7,0-2.5-0.3
	c0.4-0.1,0.8-0.3,1.2-0.4C344.6,48.9,344.8,49,344.9,49z M346.3,46.2c0.3,0,0.7,0,1.1,0.1c-1.6,0.4-3,1.3-4.4,2.3
	c0.1-0.6,0.4-1.2,0.9-1.8v-0.1C344.6,46.3,345.6,46.2,346.3,46.2z M354,35.5c0.6-0.6,1.3-1.1,2.1-1.4c0.4-0.1,0.9-0.1,1.3,0
	c0.3,0.1,0.5-0.2,0.6-0.5h0.1c-0.8,1.8-2.7,3.1-4.6,2.8C353.6,36,353.8,35.8,354,35.5z M352,40.7c-1.4,0-2.3-0.4-2.7-1
	c0.6,0.2,1.3,0.3,2,0.4c0.3,0.2,0.7,0.4,1,0.6C352.2,40.7,352.1,40.7,352,40.7z M358.3,35.6c0.6-0.7,1-1.6,1.1-2.5
	c0-0.3-0.2-0.6-0.5-0.6c-0.5,0-1,0.1-1.5,0.2l0,0c2.6-1,5.3-1.7,7.7-1.8C363.8,33.2,361.2,34.7,358.3,35.6z M361.4,36.3
	c1.4-0.7,2.6-1.6,3.7-2.6c-0.3,0.5-0.7,1-1.1,1.4C362.9,35.7,362,36.1,361.4,36.3z M366.9,28c0.8,0.5,1.3,1.3,1.5,2.4
	c0.1,0.5,0.7,0.3,0.7-0.1c-0.1-0.8-0.3-1.4-0.5-2c0.1,0,0.2,0.1,0.3,0.1c2.4,1.5,0.7,3.4-1.8,5.1c0.3-0.6,0.5-1.2,0.6-1.8
	c0.2-1.5-0.3-2.7-1.1-3.5C366.7,28,366.8,28,366.9,28z M364.4,28.3c0.4,0.2,0.7,0.4,1,0.7c-1.9,0.1-4,0.5-6.1,1.1
	C361.1,29.4,362.8,28.7,364.4,28.3z M356.6,29.7c1-1,2.2-1.8,3.6-2.2c0.4-0.1,0.8-0.2,1.2-0.3l0,0c0.1,0.1,0.3,0.1,0.5,0.2
	C360.1,27.9,358.3,28.7,356.6,29.7z M343.8,33.8c0.3-0.3-0.3-0.7-0.5-0.4c-0.2,0.2-0.4,0.4-0.5,0.7c-0.1-0.6,0.2-1.2,0.8-1.6
	c0.3-0.1,0.6-0.2,0.9-0.1c0.5,0.2,0.9,0.8,0.7,1.3c-0.2,0.6-1.1,0.8-1.8,0.8C343.5,34.3,343.6,34,343.8,33.8z M360.8,9.6
	c-0.9,2.9-3,6.4-6.1,7.3l0,0c1.1-1,2.1-2.4,2.8-3.6c0.1,0,0.2,0,0.2-0.1c2.6-2.4,3.4-6.3,2.3-9.6c-0.1-0.3-0.2-0.5-0.4-0.8
	C361.4,4,361.3,7.7,360.8,9.6z M351.6,7.2c1.8-2.3,3.9-4.1,5.5-4.6c0.1,0,0.1,0,0.2,0c0.8,0.3,1.4,1.1,1.6,2.4
	c0.2,1.1,0.2,2.3,0,3.4c-0.2-1.7-1.2-3-3.3-3C354.1,5.5,352.8,6.2,351.6,7.2z M350.4,11.2c0.8-2.1,3.4-4.3,5.7-4.2
	c1.2,0.1,1.5,0.9,1.3,2V8.9c-0.1-0.3-0.5-0.5-0.8-0.4c-1.8,0.4-5.2,2.7-6.5,5.2C350.1,12.8,350.1,11.9,350.4,11.2z M348.5,13.6
	c0.1,1.4,0.8,2.6,1.8,3.5c-0.2,0.3-0.3,0.6-0.5,0.9C348.5,16.9,348.2,15.3,348.5,13.6z M351.6,16.3c-0.1-0.2-0.2-0.5-0.2-0.9
	c0-1.1,1.1-2.3,1.8-3c0.7-0.7,3.4-3.3,3.1-1.5c0,0.2,0.1,0.4,0.3,0.5c-0.9,1.8-2.3,3.7-2.7,4.1c-0.3,0.3-1.4,1.3-2.1,1.1
	C351.8,16.5,351.7,16.4,351.6,16.3z M338.7,16.7c-0.3,0.6-0.7,1.1-1,1.3c1.4-2.3,1.8-5.2,1.3-7.8C339.5,12.3,339.7,14.7,338.7,16.7z
	 M337.3,9.4c0,0,0.1,0,0.1-0.1c0,0.1,0,0.1,0.1,0.2c0.6,2.6,0.4,5.5-1,7.7C334.5,15.1,334.3,10.5,337.3,9.4z M330.8,10.8
	c-0.4-2.1-0.1-9.6,3.7-8.4c1.2,0.4,2.1,1.6,2.8,3c-1-1.5-2.4-2.5-4.3-1.2c-1.8,1.2-2.4,4-2.2,6.9C330.8,11,330.8,10.9,330.8,10.8z
	 M333.2,6.1c1.7-2.8,3.2,0.3,3.9,2.3c-0.1,0-0.1,0-0.2,0c-3.9,0.3-3.9,5.2-2.4,8.4c-0.5-0.6-1-1.4-1.3-2C332,12,331.5,8.8,333.2,6.1
	z M332.7,17.1c0.7,1.1,1.6,1.9,2.5,2.3c0,0.3,0,0.6-0.1,0.9C334.2,19.5,333.4,18.4,332.7,17.1z M326.7,27.2c0.1-0.4,0.1-0.9,0.2-1.3
	c0.1-0.3-0.4-0.5-0.5-0.2c0,0.2-0.1,0.4-0.1,0.6c0-0.1,0-0.1,0-0.2c-0.1-0.9,0.3-1.8,0.9-2.5c0.1-0.1,0.1-0.1,0.1-0.2
	c0.1,0,0.2,0.2,0.4,0.4c0.4,0.9,0.4,2.1-0.1,2.9C327.3,27.1,327,27.2,326.7,27.2z M299.5,33.7c-0.2-9.7,0.6-19.2,3.9-28.3
	c0.5-1.3,0.9-1.9,1.3-2.1c-2.5,8.4-2.1,18.2-3.2,26.9c-1,8.5,0.1,17-0.4,25.5c-0.1,0.2-0.1,0.5-0.2,0.7
	C299.5,48.8,299.7,41.2,299.5,33.7z M305.2,3.6c0.7,3.2,1.4,6.4,1.9,9.5c-1.6,13.2-1.8,26.2-4.8,38.4c0.1-6.1-0.4-12.2-0.1-18.3
	c0.3-5.2,1.2-10.4,1.7-15.6C304.3,12.9,304.1,8.3,305.2,3.6z M307.3,14.8c2.1,13.9,1.8,27.3-4.1,40.7
	C306.9,42.4,306.6,27.2,307.3,14.8z M306.4,4.4c0.8,1.5,1.5,3.9,2.1,5c2.7,5.1,3,11.3,3.1,16.9c0.2,10.4-1.6,20.1-7.4,28.6
	C311.9,39.9,310.6,20.3,306.4,4.4z M358.9,63.6c0.2,0.3,0.2,0.5,0.2,0.9c-1,0.4-1.9,0.8-2.9,1.1C357.1,64.9,358,64.3,358.9,63.6z
	 M350,64.7c-1.4,0-2.7,0.1-4.1,0.2c3.8-0.8,8-2,11.9-1.5c-1.6,1.2-3.2,2.2-4.9,3.1c-3.1,0.7-6.3,1.1-9.6,1.5
	c-7.7,0.9-15.3,2.6-22.9,3.8c-2.7,0.4-5.4,0.9-8.1,1.4c5.2-1.7,10.5-3.3,16-4.6c1.8-0.4,3.6-0.8,5.4-1.2c5.4-0.7,10.9-1.3,16.4-2.2
	C350.3,65.2,350.3,64.6,350,64.7z M355.1,62.1c0.7,0.1,1.4,0.2,1.9,0.3c-5.8-0.8-13.5,1.5-19.5,3.1c-12.6,1.3-25.1,4.1-36.6,9.5
	c-0.3,0.2-0.1,0.7,0.2,0.5c6.9-3.2,13.9-5.1,21-6.4c-6.8,1.7-13.7,3.7-20.1,6.5c-1.7,0.5-3.4,1-5,1.6
	C313.1,65.3,335.3,60.2,355.1,62.1z M296.2,79.5c-1.4,0.2-2.9,0.5-4.4,0.8c1.4-0.6,2.7-1.1,4.1-1.6c-0.1,0.2,0.1,0.4,0.3,0.3
	c2-0.8,4.1-1.6,6.1-2.3c7.7-2.1,15.6-3.5,23.6-4.8c6.7-1.1,14.2-1.5,21.4-2.9c-6.3,2.5-13.1,3.7-20.1,4.4
	c-10.4,1.1-20.7,3.5-30.8,6.2C296.5,79.5,296.4,79.5,296.2,79.5z M348.3,74.5c-6.4,3.6-13.6,5.7-20.8,6.6c-7.3,1-14.6,0.1-22-0.4
	c1.1-0.1,2.2-0.3,3.3-0.4c8.6-0.9,17.1-1.9,25.7-3.2c4.3-0.7,10-1.5,14.9-3.3C349,74.1,348.6,74.4,348.3,74.5z M329.7,76.8
	c-7,1.2-14.1,1.8-21.1,2.7c-2.4,0.3-4.9,0.7-7.3,1c-1.7-0.1-3.4,0-5.2,0H296c-0.1,0-0.2,0-0.3,0c11.5-2.9,23-5.4,34.7-6.5
	c7.6-0.8,15.1-2.5,21.7-6c2.3-0.6,4.5-1.3,6.6-2.2c-0.2,0.4-0.5,0.9-0.9,1.4C351,74.3,339.1,75.3,329.7,76.8z"/>
<g>
	<path class="st1" d="M40.1,32.1c-0.1,3.8,0.6,7.4,3.1,9.8c8.6-3.2,19.9-6,23.3-0.4c4.6,7.5-11.9,8.6-16.5,8.8
		c-2.5,0.1-4.9-0.1-7.1-0.4c-2,0.8-3.9,2-5.9,3.1c-10.6,6.7-17.6,16.3-17,28c1.1,25.4,44.1,8.5,46.7-8.8c0.6-4,13.7-3.5,13.1,0
		c-3.6,23-64.1,43.1-72.4,13.7c-4.8-17.4,9.9-32.3,26.2-40c-4.3-3.2-6.7-8.1-6.6-13.9C16,30.4,5.4,25.3,0.3,16.6
		C-1.9,13,10.9,11.9,13,15.1c3.3,5.7,8.8,8.9,15.1,10.3c3.9-14.2,20.5-24,36.8-25c8.9-0.6,21.6,2.1,18.3,12.1
		C79.2,24.5,55.9,30.9,40.1,32.1z M68.9,5.9c-4.2-2.6-16.7,5.3-19,7.1c-4.3,3.5-7.5,7.9-8.9,13c1-0.1,1.8-0.1,2.8-0.3
		C47.8,25,80.6,13.6,68.9,5.9z"/>
	<path class="st1" d="M136.1,57.6c-1,5.3-16.5,7.7-18,7.8c-0.1,0-0.1,0-0.3,0v0.1c0,0.1-0.1,0.3-0.1,0.3c0,0.3-0.1,0.4-0.1,0.7
		c-0.1,0.1-0.3,0.4-0.3,0.6C112,81.3,102,93.7,88.7,98.9c-15.2,6.1-22.9-7-22.6-18.4c0.3-12.6,2.5-25.1,6-36.5
		c1.1-3.8,14.2-2.5,13,1.5c-1.8,5.7-3.1,11.6-4,17.6c-1,5.6-5,29.3,4,27.3c3.8-2.9,7.3-6.4,10.3-10c4.6-5.4,8.1-11.7,10.2-18.4
		c-6.8-4.2-11.2-11.7-4.9-17.8c1.5-1.5,4.2-2.6,7-2.9c5.2-0.7,11.2,0.8,13,6.3c0.1,0.6,0.3,1.1,0.4,1.8c0.4,2.6,0,5.7-0.7,8.6
		c6.6-1.7,9.2-4.2,9.5-4.3C136.6,48.6,136.4,53.5,136.1,57.6z"/>
	<path class="st1" d="M192.6,82.3c-4.6,10.6-24.1,28.6-35.3,9.9c-0.8-1.4-1.4-2.8-1.7-4.3c-7.5,8.6-17.2,14.8-28,11.6
		c-14.9-4.3-7.9-22.6-3.5-32.4c7-15.2,19.1-26.6,36.3-24c0.8,0.1,1.7,0.3,2.4,0.4c0.4,0.1,0.7,0.3,1.1,0.4c1.5,0.6,2.7,1.3,3.6,2.2
		c4-0.7,10.5,0.8,10.2,1.5c-3.8,8.8-7,18.1-8.5,27.6c-1,6.1-1,11.3,1.7,16.6c0.3-0.1,0.4-0.3,0.8-0.7c1.1-0.8,2.2-1.8,3.2-2.8
		c1.8-1.8,3.5-3.9,4.6-6.1C180.8,78.8,193,81.2,192.6,82.3z M156.6,50c-0.1-0.4-0.4-0.7-0.7-0.8c-9.6-2.1-18.1,16.9-20.8,23.7
		c-1.5,4.2-3.2,8.6-3.5,13.2c-0.1,1.8-0.3,3.6,0.6,5.3c0.3,0.6,0.7,1.3,1.4,1.8c0.6,0,0.7-0.1,1.1-0.3c1.4-0.6,2.5-1.7,3.8-2.6
		c2.9-2.5,5.4-5.6,7.7-8.6c4.7-6.6,9.6-14.4,11.3-22.3C158.1,55.8,158,53.2,156.6,50z M155.6,49c0,0,0.1,0,0.3,0.1
		C155.7,49,155.6,49,155.6,49z"/>
	<path class="st1" d="M244.2,86.5c-8.2,10.2-32.6,23.8-37.8,2.9c-2.1-8.5,4-23.8,9.6-30.1c0.1-0.3,0.1-0.6,0.3-0.8
		c-2.1,0.4-4.3,0.7-6,0.8c-1.4,0.1-2.8,0.1-4.2,0.1c-0.6,1.1-1,2.4-1.4,3.2c-5.9,10.5-5.9,10.5-11.9,19.8c-2.6,4.2-15.5,2.2-12.7-2
		c7.4-11.4,7.9-13,13.7-24.8c-6.1-4.2-9.1-11.7-1.7-17.8c5-4.3,17.7-5,19.2,3.2c0.6,2.9-0.6,6.8-2,10.6c1.5-0.1,3.2-0.7,4.7-1
		c2.9-0.6,6-1.1,8.9-0.7c13.9,2.2,2.6,16.3-0.6,23.6c-2.1,4.6-6.1,20.5,0.3,18.3c3.8-1.3,7.5-6,10-9.1
		C235.8,79.1,248.3,81.5,244.2,86.5z"/>
	<path class="st1" d="M307.6,82.3c-4.6,10.6-24.1,28.6-35.3,9.9c-0.8-1.4-1.4-2.8-1.7-4.3c-7.5,8.6-17.2,14.8-28,11.6
		c-14.9-4.3-7.9-22.6-3.5-32.4c7-15.2,19.1-26.6,36.3-24c0.8,0.1,1.7,0.3,2.4,0.4c0.4,0.1,0.7,0.3,1.1,0.4c1.5,0.6,2.6,1.3,3.6,2.2
		c4-0.7,10.5,0.8,10.2,1.5c-3.8,8.8-7,18.1-8.5,27.6c-1,6.1-1,11.3,1.7,16.6c0.3-0.1,0.4-0.3,0.8-0.7c1.1-0.8,2.2-1.8,3.2-2.8
		c1.8-1.8,3.5-3.9,4.6-6.1C295.9,78.8,308,81.2,307.6,82.3z M271.6,50c-0.1-0.4-0.4-0.7-0.7-0.8c-9.6-2.1-18.1,16.9-20.8,23.7
		c-1.5,4.2-3.2,8.6-3.5,13.2c-0.1,1.8-0.3,3.6,0.6,5.3c0.3,0.6,0.7,1.3,1.4,1.8c0.6,0,0.7-0.1,1.1-0.3c1.4-0.6,2.5-1.7,3.8-2.6
		c2.9-2.5,5.4-5.6,7.7-8.6c4.7-6.6,9.6-14.4,11.3-22.3C273.2,55.8,273,53.2,271.6,50z M270.7,49c0,0,0.1,0,0.3,0.1
		C270.8,49,270.7,49,270.7,49z"/>
</g>
</svg>
